{"title":"Transit[2012]ENG[BRRip]XviD-{RedDragon}","uid":6936890,"size":739610893,"categoryP":"video","categoryS":"movies","magnet":"?xt=urn:btih:417978b9ae55dc33f5bfb690b0d4f006e54e8e60&amp;dn=Transit%5B2012%5DENG%5BBRRip%5DXviD-%7BRedDragon%7D&amp;tr=udp%3A%2F%2Ftracker.openbittorrent.com%3A80&amp;tr=udp%3A%2F%2Fopen.demonii.com%3A1337&amp;tr=udp%3A%2F%2Ftracker.coppersurfer.tk%3A6969&amp;tr=udp%3A%2F%2Fexodus.desync.com%3A6969","seeders":0,"leechers":1,"uploader":"RedDr4gon","files":8,"time":1325858069,"description":"General\n\nComplete name                    : Transit[2012][ENG][BRRip]XviD-{RedDragon}\nFormat                           : AVI\nFormat/Info                      : Audio Video Interleave\nFile size                        : 755 MiB\nDuration                         : 1h 28mn\nOverall bit rate                 : 1 117 Kbps\nIMDB                             : http://www.imdb.com/title/tt1059836/\nIMDB Rating                      : 7/10\n\nVideo\n\nID                               : 0\nFormat                           : MPEG-4 Visual\nFormat profile                   : Simple@L3\nFormat settings, BVOP            : No\nFormat settings, QPel            : No\nFormat settings, GMC             : No warppoints\nFormat settings, Matrix          : Default (H.263)\nCodec ID                         : XVID\nCodec ID/Hint                    : XviD\nDuration                         : 1h 28mn\nBit rate                         : 976 Kbps\nWidth                            : 640 pixels\nHeight                           : 272 pixels\nDisplay aspect ratio             : 2.35:1\nFrame rate                       : 23.976 fps\nColor space                      : YUV\nChroma subsampling               : 4:2:0\nBit depth                        : 8 bits\nScan type                        : Progressive\nBits/(Pixel*Frame)               : 0.234\nStream size                      : 616 MiB (87%)\nWriting library                  : XviD 1.1.2 (UTC 2006-11-01)\n\nAudio\n\nID                               : 1\nFormat                           : MPEG Audio\nFormat version                   : Version 1\nFormat profile                   : Layer 3\nMode                             : Joint stereo\nMode extension                   : MS Stereo\nCodec ID                         : 55\nCodec ID/Hint                    : MP3\nDuration                         : 1h 28mn\nBit rate mode                    : Constant\nBit rate                         : 128 Kbps\nChannel(s)                       : 2 channels\nSampling rate                    : 48.0 KHz\nStream size                      : 80.7 MiB (11%)\nAlignment                        : Split accross interleaves\nInterleave, duration             : 24 ms (0.58 video frame)\nWriting library                  : LAME3.98\n \n\nFORUMS. \n \n \nPlease Join my Forums :\n &lt;a href=&quot;\nhttp://discussionforums.freeforhosting.com/&quot; rel=&quot;nofollow&quot; target=&quot;_NEW&quot;&gt;\nhttp://discussionforums.freeforhosting.com/&lt;/a&gt;    --&gt; Discussion Forum.","torrent":{"xt":"urn:btih:417978b9ae55dc33f5bfb690b0d4f006e54e8e60","amp;dn":"Transit%5B2012%5DENG%5BBRRip%5DXviD-%7BRedDragon%7D","amp;tr":["udp%3A%2F%2Ftracker.openbittorrent.com%3A80","udp%3A%2F%2Fopen.demonii.com%3A1337","udp%3A%2F%2Ftracker.coppersurfer.tk%3A6969","udp%3A%2F%2Fexodus.desync.com%3A6969"],"infoHash":"417978b9ae55dc33f5bfb690b0d4f006e54e8e60","infoHashBuffer":{"type":"Buffer","data":[65,121,120,185,174,85,220,51,245,191,182,144,176,212,240,6,229,78,142,96]},"announce":[],"urlList":[]}}